{"asset":{"generator":"3D Builder","version":"2.0"},"scene":0,"scenes":[{"nodes":[0]}],"nodes":[{"mesh":0,"matrix":[1,0,0,0,0,-1.1920928955078125E-7,-0.99999988079071045,0,0,0.99999988079071045,-1.1920928955078125E-7,0,-50.019870758056641,5.9604633406706853E-7,-4.9999995231628418,1]}],"meshes":[{"primitives":[{"attributes":{"POSITION":0},"mode":4,"indices":1,"material":0}]}],"materials":[{"name":"Regular","pbrMetallicRoughness":{"baseColorFactor":[1,0.21223072707653046,0.018500218167901039,1],"metallicFactor":0,"roughnessFactor":1},"alphaMode":"OPAQUE"}],"accessors":[{"bufferView":0,"byteOffset":0,"count":143,"componentType":5126,"type":"VEC3","min":[0.039745144546031952,-10,-1.1920928955078125E-6],"max":[100,0,9.9999990463256836]},{"bufferView":1,"byteOffset":0,"count":846,"componentType":5125,"type":"SCALAR"}],"bufferViews":[{"buffer":0,"byteOffset":0,"byteLength":1716,"byteStride":12,"target":34962},{"buffer":0,"byteOffset":1716,"byteLength":3384,"target":34963}],"buffers":[{"byteLength":5100,"uri":"3D Model.bin"}]}