{
  "asset": {
    "version": "2.0",
    "generator": "THREE.GLTFExporter r180"
  },
  "scenes": [
    {
      "name": "Scene",
      "nodes": [
        0
      ]
    }
  ],
  "scene": 0,
  "nodes": [
    {
      "matrix": [
        4.440892098500626e-16,
        2,
        0,
        0,
        -2,
        4.440892098500626e-16,
        0,
        0,
        0,
        0,
        2,
        0,
        -35,
        0,
        0,
        1
      ],
      "name": "S1_BOWL_PIN.stl",
      "mesh": 0
    }
  ],
  "bufferViews": [
    {
      "buffer": 0,
      "byteOffset": 0,
      "byteLength": 867096,
      "target": 34962,
      "byteStride": 12
    },
    {
      "buffer": 0,
      "byteOffset": 867096,
      "byteLength": 867096,
      "target": 34962,
      "byteStride": 12
    }
  ],
  "buffers": [
    {
      "byteLength": 1734192,
      "uri": "data:application/octet-stream;base64,"
    }
  ],
  "accessors": [
    {
      "bufferView": 0,
      "componentType": 5126,
      "count": 72258,
      "max": [
        7.355290412902832,
        0,
        7.355600833892822
      ],
      "min": [
        -7.355290412902832,
        -35,
        -7.3543596267700195
      ],
      "type": "VEC3"
    },
    {
      "bufferView": 1,
      "componentType": 5126,
      "count": 72258,
      "max": [
        0.999957799911499,
        0.9995060563087463,
        0.9998312592506409
      ],
      "min": [
        -0.999957799911499,
        -1,
        -1
      ],
      "type": "VEC3"
    }
  ],
  "materials": [
    {
      "pbrMetallicRoughness": {
        "baseColorFactor": [
          0.7912979403281551,
          0.2501582847191642,
          0.012983032338510335,
          1
        ],
        "metallicFactor": 0,
        "roughnessFactor": 1
      }
    }
  ],
  "meshes": [
    {
      "primitives": [
        {
          "mode": 4,
          "attributes": {
            "POSITION": 0,
            "NORMAL": 1
          },
          "material": 0
        }
      ]
    }
  ]
}