{"asset":{"generator":"3D Builder","version":"2.0"},"scene":0,"scenes":[{"nodes":[0]}],"nodes":[{"mesh":0,"matrix":[1,0,0,0,0,-1.1920928955078125E-7,-0.99999988079071045,0,0,0.99999988079071045,-1.1920928955078125E-7,0,0,-9.9999876022338867,-1.9084939140157076E-6,1]}],"meshes":[{"primitives":[{"attributes":{"POSITION":0},"mode":4,"indices":1,"material":0}]}],"materials":[{"name":"Regular","pbrMetallicRoughness":{"baseColorFactor":[1,0.21223072707653046,0.018500218167901039,1],"metallicFactor":0.5,"roughnessFactor":0.5},"alphaMode":"OPAQUE"}],"accessors":[{"bufferView":0,"byteOffset":0,"count":13577,"componentType":5126,"type":"VEC3","min":[-30.00004768371582,-29.99998664855957,5.7220458984375E-6],"max":[30.00004768371582,29.999979019165039,59.999969482421875]},{"bufferView":1,"byteOffset":0,"count":81450,"componentType":5125,"type":"SCALAR"}],"bufferViews":[{"buffer":0,"byteOffset":0,"byteLength":162924,"byteStride":12,"target":34962},{"buffer":0,"byteOffset":162924,"byteLength":325800,"target":34963}],"buffers":[{"byteLength":488724,"uri":"3D Model.bin"}]}