{
  "asset": {
    "version": "2.0",
    "generator": "THREE.GLTFExporter"
  },
  "scenes": [
    {
      "name": "Scene",
      "nodes": [
        4
      ]
    }
  ],
  "scene": 0,
  "nodes": [
    {
      "mesh": 0
    },
    {
      "mesh": 1
    },
    {
      "children": [
        0,
        1
      ]
    },
    {
      "children": [
        2
      ]
    },
    {
      "children": [
        3
      ]
    }
  ],
  "bufferViews": [
    {
      "buffer": 0,
      "byteOffset": 0,
      "byteLength": 6840,
      "target": 34962,
      "byteStride": 12
    },
    {
      "buffer": 0,
      "byteOffset": 6840,
      "byteLength": 20952,
      "target": 34962,
      "byteStride": 12
    }
  ],
  "buffers": [
    {
      "byteLength": 27792,
      "uri": "data:application/octet-stream;base64,"
    }
  ],
  "accessors": [
    {
      "bufferView": 0,
      "componentType": 5126,
      "count": 570,
      "max": [
        20.100000381469727,
        25.100000381469727,
        4.900000095367432
      ],
      "min": [
        -25.100000381469727,
        -25.100000381469727,
        4.900000095367432
      ],
      "type": "VEC3"
    },
    {
      "bufferView": 1,
      "componentType": 5126,
      "count": 1746,
      "max": [
        35,
        35,
        5
      ],
      "min": [
        -35,
        -35,
        -4.6566100309064495e-7
      ],
      "type": "VEC3"
    }
  ],
  "materials": [
    {
      "pbrMetallicRoughness": {
        "baseColorFactor": [
          0.12743768042608497,
          0.03820437158923601,
          0.004391442035325718,
          1
        ],
        "metallicFactor": 0.5,
        "roughnessFactor": 0.5
      },
      "name": "Material.001"
    },
    {
      "pbrMetallicRoughness": {
        "baseColorFactor": [
          1,
          0.21223075740342195,
          0.018500220124016656,
          1
        ],
        "metallicFactor": 0.5,
        "roughnessFactor": 0.5
      },
      "name": "Regular"
    }
  ],
  "meshes": [
    {
      "primitives": [
        {
          "mode": 4,
          "attributes": {
            "POSITION": 0
          },
          "material": 0
        }
      ]
    },
    {
      "primitives": [
        {
          "mode": 4,
          "attributes": {
            "POSITION": 1
          },
          "material": 1
        }
      ]
    }
  ]
}